<mxfile host="app.diagrams.net" modified="2021-06-06T08:07:30.218Z" agent="5.0 (Windows NT 6.1; Win64; x64) AppleWebKit/537.36 (KHTML, like Gecko) Chrome/88.0.4324.146 Safari/537.36" etag="dsVu9n3JZyrvLHag94gA" version="14.7.3" type="github">
  <diagram id="R0ZRWvp700UOv-Cdp7zI" name="第 1 页">
    <mxGraphModel dx="1422" dy="705" grid="1" gridSize="10" guides="1" tooltips="1" connect="1" arrows="1" fold="1" page="1" pageScale="1" pageWidth="827" pageHeight="1169" math="0" shadow="0">
      <root>
        <mxCell id="XRroPWcVKqj9x4QE8Bks-0" />
        <mxCell id="XRroPWcVKqj9x4QE8Bks-1" parent="XRroPWcVKqj9x4QE8Bks-0" />
      </root>
    </mxGraphModel>
  </diagram>
</mxfile>
